HIERARCHY
ROOT mixamorig:Hips
{
	OFFSET 0.003516 88.465813 1.822714
	CHANNELS 6 Xposition Yposition Zposition Xrotation Yrotation Zrotation
	JOINT mixamorig:Spine
	{
		OFFSET 0.005120 8.711960 -0.691022
		CHANNELS 3 Xrotation Yrotation Zrotation
		JOINT mixamorig:Spine1
		{
			OFFSET -0.009150 8.660309 -1.274966
			CHANNELS 3 Xrotation Yrotation Zrotation
			JOINT mixamorig:Spine2
			{
				OFFSET 0.006324 9.852470 -1.856973
				CHANNELS 3 Xrotation Yrotation Zrotation
				JOINT mixamorig:Neck
				{
					OFFSET 0.016319 11.420799 -0.263317
					CHANNELS 3 Xrotation Yrotation Zrotation
					JOINT mixamorig:Head
					{
						OFFSET -0.019249 9.262413 2.362541
						CHANNELS 3 Xrotation Yrotation Zrotation
						JOINT mixamorig:HeadTop_End
						{
							OFFSET -0.003338 20.641678 4.374156
							CHANNELS 3 Xrotation Yrotation Zrotation
							JOINT mixamorig:HeadTop_End_end
							{
								OFFSET 0.000000 14.712143 0.000000
								CHANNELS 3 Xrotation Yrotation Zrotation
								End Site
								{
									OFFSET 0.000000 14.712143 0.000000
								}
							}
						}
						JOINT mixamorig:RightEye
						{
							OFFSET -4.115469 7.286621 7.915824
							CHANNELS 3 Xrotation Yrotation Zrotation
							JOINT mixamorig:RightEye_end
							{
								OFFSET 0.000000 14.712143 0.000000
								CHANNELS 3 Xrotation Yrotation Zrotation
								End Site
								{
									OFFSET 0.000000 14.712143 0.000000
								}
							}
						}
						JOINT mixamorig:LeftEye
						{
							OFFSET 4.109910 7.286469 7.915824
							CHANNELS 3 Xrotation Yrotation Zrotation
							JOINT mixamorig:LeftEye_end
							{
								OFFSET 0.000000 14.712143 0.000000
								CHANNELS 3 Xrotation Yrotation Zrotation
								End Site
								{
									OFFSET 0.000000 14.712143 0.000000
								}
							}
						}
					}
				}
				JOINT mixamorig:LeftShoulder
				{
					OFFSET 5.616941 6.732201 -0.345732
					CHANNELS 3 Xrotation Yrotation Zrotation
					JOINT mixamorig:LeftArm
					{
						OFFSET 10.664845 -0.188469 -2.440738
						CHANNELS 3 Xrotation Yrotation Zrotation
						JOINT mixamorig:LeftForeArm
						{
							OFFSET 27.383577 0.285019 -2.015105
							CHANNELS 3 Xrotation Yrotation Zrotation
							JOINT mixamorig:LeftHand
							{
								OFFSET 21.293716 -0.314583 0.679340
								CHANNELS 3 Xrotation Yrotation Zrotation
								JOINT mixamorig:LeftHandMiddle1
								{
									OFFSET 9.763229 -1.321671 0.816021
									CHANNELS 3 Xrotation Yrotation Zrotation
									JOINT mixamorig:LeftHandMiddle2
									{
										OFFSET 2.625031 -0.375854 0.170624
										CHANNELS 3 Xrotation Yrotation Zrotation
										JOINT mixamorig:LeftHandMiddle3
										{
											OFFSET 2.488792 -0.572639 0.028785
											CHANNELS 3 Xrotation Yrotation Zrotation
											JOINT mixamorig:LeftHandMiddle4
											{
												OFFSET 2.802010 -0.426804 0.068342
												CHANNELS 3 Xrotation Yrotation Zrotation
												JOINT mixamorig:LeftHandMiddle4_end
												{
													OFFSET 0.000000 2.835152 0.000000
													CHANNELS 3 Xrotation Yrotation Zrotation
													End Site
													{
														OFFSET 0.000000 2.835152 0.000000
													}
												}
											}
										}
									}
								}
								JOINT mixamorig:LeftHandThumb1
								{
									OFFSET 2.764015 -1.495537 2.908529
									CHANNELS 3 Xrotation Yrotation Zrotation
									JOINT mixamorig:LeftHandThumb2
									{
										OFFSET 2.537514 -1.378227 2.355325
										CHANNELS 3 Xrotation Yrotation Zrotation
										JOINT mixamorig:LeftHandThumb3
										{
											OFFSET 2.272415 -1.478157 1.771937
											CHANNELS 3 Xrotation Yrotation Zrotation
											JOINT mixamorig:LeftHandThumb4
											{
												OFFSET 1.532486 -0.855270 1.601493
												CHANNELS 3 Xrotation Yrotation Zrotation
												JOINT mixamorig:LeftHandThumb4_end
												{
													OFFSET 0.000000 2.375877 0.000000
													CHANNELS 3 Xrotation Yrotation Zrotation
													End Site
													{
														OFFSET 0.000000 2.375877 0.000000
													}
												}
											}
										}
									}
								}
								JOINT mixamorig:LeftHandIndex1
								{
									OFFSET 9.375107 -1.129349 3.172469
									CHANNELS 3 Xrotation Yrotation Zrotation
									JOINT mixamorig:LeftHandIndex2
									{
										OFFSET 2.650261 -0.715843 0.317083
										CHANNELS 3 Xrotation Yrotation Zrotation
										JOINT mixamorig:LeftHandIndex3
										{
											OFFSET 2.499153 -0.696144 0.283129
											CHANNELS 3 Xrotation Yrotation Zrotation
											JOINT mixamorig:LeftHandIndex4
											{
												OFFSET 2.282646 -0.400391 0.225909
												CHANNELS 3 Xrotation Yrotation Zrotation
												JOINT mixamorig:LeftHandIndex4_end
												{
													OFFSET 0.000000 2.328484 0.000000
													CHANNELS 3 Xrotation Yrotation Zrotation
													End Site
													{
														OFFSET 0.000000 2.328484 0.000000
													}
												}
											}
										}
									}
								}
								JOINT mixamorig:LeftHandRing1
								{
									OFFSET 9.413681 -1.525459 -1.182427
									CHANNELS 3 Xrotation Yrotation Zrotation
									JOINT mixamorig:LeftHandRing2
									{
										OFFSET 2.419609 -0.367126 -0.302248
										CHANNELS 3 Xrotation Yrotation Zrotation
										JOINT mixamorig:LeftHandRing3
										{
											OFFSET 2.323944 -0.438530 -0.266254
											CHANNELS 3 Xrotation Yrotation Zrotation
											JOINT mixamorig:LeftHandRing4
											{
												OFFSET 2.594856 -0.567017 -0.193109
												CHANNELS 3 Xrotation Yrotation Zrotation
												JOINT mixamorig:LeftHandRing4_end
												{
													OFFSET 0.000000 2.663086 0.000000
													CHANNELS 3 Xrotation Yrotation Zrotation
													End Site
													{
														OFFSET 0.000000 2.663086 0.000000
													}
												}
											}
										}
									}
								}
								JOINT mixamorig:LeftHandPinky1
								{
									OFFSET 8.696220 -1.924660 -3.265638
									CHANNELS 3 Xrotation Yrotation Zrotation
									JOINT mixamorig:LeftHandPinky2
									{
										OFFSET 2.567070 -0.415382 -0.492817
										CHANNELS 3 Xrotation Yrotation Zrotation
										JOINT mixamorig:LeftHandPinky3
										{
											OFFSET 1.537094 -0.314445 -0.346561
											CHANNELS 3 Xrotation Yrotation Zrotation
											JOINT mixamorig:LeftHandPinky4
											{
												OFFSET 1.971329 -0.203903 -0.323109
												CHANNELS 3 Xrotation Yrotation Zrotation
												JOINT mixamorig:LeftHandPinky4_end
												{
													OFFSET 0.000000 2.008011 0.000000
													CHANNELS 3 Xrotation Yrotation Zrotation
													End Site
													{
														OFFSET 0.000000 2.008011 0.000000
													}
												}
											}
										}
									}
								}
							}
						}
					}
				}
				JOINT mixamorig:RightShoulder
				{
					OFFSET -5.580283 6.737488 -0.344368
					CHANNELS 3 Xrotation Yrotation Zrotation
					JOINT mixamorig:RightArm
					{
						OFFSET -10.679359 -0.184799 -2.383892
						CHANNELS 3 Xrotation Yrotation Zrotation
						JOINT mixamorig:RightForeArm
						{
							OFFSET -27.441252 0.296532 -1.826581
							CHANNELS 3 Xrotation Yrotation Zrotation
							JOINT mixamorig:RightHand
							{
								OFFSET -21.289719 -0.299965 0.799080
								CHANNELS 3 Xrotation Yrotation Zrotation
								JOINT mixamorig:RightHandMiddle1
								{
									OFFSET -9.759789 -1.315895 0.859254
									CHANNELS 3 Xrotation Yrotation Zrotation
									JOINT mixamorig:RightHandMiddle2
									{
										OFFSET -2.623657 -0.374268 0.182171
										CHANNELS 3 Xrotation Yrotation Zrotation
										JOINT mixamorig:RightHandMiddle3
										{
											OFFSET -2.488808 -0.571327 0.039090
											CHANNELS 3 Xrotation Yrotation Zrotation
											JOINT mixamorig:RightHandMiddle4
											{
												OFFSET -2.801598 -0.426552 0.079908
												CHANNELS 3 Xrotation Yrotation Zrotation
												JOINT mixamorig:RightHandMiddle4_end
												{
													OFFSET 0.000000 2.835014 0.000000
													CHANNELS 3 Xrotation Yrotation Zrotation
													End Site
													{
														OFFSET 0.000000 2.835014 0.000000
													}
												}
											}
										}
									}
								}
								JOINT mixamorig:RightHandThumb1
								{
									OFFSET -2.751724 -1.492180 2.922981
									CHANNELS 3 Xrotation Yrotation Zrotation
									JOINT mixamorig:RightHandThumb2
									{
										OFFSET -2.528816 -1.377510 2.366953
										CHANNELS 3 Xrotation Yrotation Zrotation
										JOINT mixamorig:RightHandThumb3
										{
											OFFSET -2.266449 -1.477386 1.780052
											CHANNELS 3 Xrotation Yrotation Zrotation
											JOINT mixamorig:RightHandThumb4
											{
												OFFSET -1.523636 -0.854614 1.606638
												CHANNELS 3 Xrotation Yrotation Zrotation
												JOINT mixamorig:RightHandThumb4_end
												{
													OFFSET 0.000000 2.373421 0.000000
													CHANNELS 3 Xrotation Yrotation Zrotation
													End Site
													{
														OFFSET 0.000000 2.373421 0.000000
													}
												}
											}
										}
									}
								}
								JOINT mixamorig:RightHandIndex1
								{
									OFFSET -9.363747 -1.122047 3.218087
									CHANNELS 3 Xrotation Yrotation Zrotation
									JOINT mixamorig:RightHandIndex2
									{
										OFFSET -2.646698 -0.715996 0.326493
										CHANNELS 3 Xrotation Yrotation Zrotation
										JOINT mixamorig:RightHandIndex3
										{
											OFFSET -2.495895 -0.695503 0.293396
											CHANNELS 3 Xrotation Yrotation Zrotation
											JOINT mixamorig:RightHandIndex4
											{
												OFFSET -2.277405 -0.394569 0.233073
												CHANNELS 3 Xrotation Yrotation Zrotation
												JOINT mixamorig:RightHandIndex4_end
												{
													OFFSET 0.000000 2.323059 0.000000
													CHANNELS 3 Xrotation Yrotation Zrotation
													End Site
													{
														OFFSET 0.000000 2.323059 0.000000
													}
												}
											}
										}
									}
								}
								JOINT mixamorig:RightHandRing1
								{
									OFFSET -9.417229 -1.519936 -1.141468
									CHANNELS 3 Xrotation Yrotation Zrotation
									JOINT mixamorig:RightHandRing2
									{
										OFFSET -2.421570 -0.365341 -0.291474
										CHANNELS 3 Xrotation Yrotation Zrotation
										JOINT mixamorig:RightHandRing3
										{
											OFFSET -2.326500 -0.437958 -0.254637
											CHANNELS 3 Xrotation Yrotation Zrotation
											JOINT mixamorig:RightHandRing4
											{
												OFFSET -2.598877 -0.563599 -0.182403
												CHANNELS 3 Xrotation Yrotation Zrotation
												JOINT mixamorig:RightHandRing4_end
												{
													OFFSET 0.000000 2.665543 0.000000
													CHANNELS 3 Xrotation Yrotation Zrotation
													End Site
													{
														OFFSET 0.000000 2.665543 0.000000
													}
												}
											}
										}
									}
								}
								JOINT mixamorig:RightHandPinky1
								{
									OFFSET -8.712410 -1.919441 -3.224456
									CHANNELS 3 Xrotation Yrotation Zrotation
									JOINT mixamorig:RightHandPinky2
									{
										OFFSET -2.569084 -0.412773 -0.482045
										CHANNELS 3 Xrotation Yrotation Zrotation
										JOINT mixamorig:RightHandPinky3
										{
											OFFSET -1.540543 -0.314758 -0.342592
											CHANNELS 3 Xrotation Yrotation Zrotation
											JOINT mixamorig:RightHandPinky4
											{
												OFFSET -1.974892 -0.200142 -0.312695
												CHANNELS 3 Xrotation Yrotation Zrotation
												JOINT mixamorig:RightHandPinky4_end
												{
													OFFSET 0.000000 2.009476 0.000000
													CHANNELS 3 Xrotation Yrotation Zrotation
													End Site
													{
														OFFSET 0.000000 2.009476 0.000000
													}
												}
											}
										}
									}
								}
							}
						}
					}
				}
			}
		}
	}
	JOINT mixamorig:LeftUpLeg
	{
		OFFSET 6.857671 -6.739647 0.312104
		CHANNELS 3 Xrotation Yrotation Zrotation
		JOINT mixamorig:LeftLeg
		{
			OFFSET -0.931659 -34.720940 -4.572450
			CHANNELS 3 Xrotation Yrotation Zrotation
			JOINT mixamorig:LeftFoot
			{
				OFFSET -0.195403 -34.658112 -6.067416
				CHANNELS 3 Xrotation Yrotation Zrotation
				JOINT mixamorig:LeftToeBase
				{
					OFFSET -0.556794 -11.119205 8.871495
					CHANNELS 3 Xrotation Yrotation Zrotation
					JOINT mixamorig:LeftToe_End
					{
						OFFSET -0.133473 0.333584 9.201297
						CHANNELS 3 Xrotation Yrotation Zrotation
						JOINT mixamorig:LeftToe_End_end
						{
							OFFSET 0.000000 9.208309 0.000000
							CHANNELS 3 Xrotation Yrotation Zrotation
							End Site
							{
								OFFSET 0.000000 9.208308 0.000000
							}
						}
					}
				}
			}
		}
	}
	JOINT mixamorig:RightUpLeg
	{
		OFFSET -6.876053 -6.733261 0.300989
		CHANNELS 3 Xrotation Yrotation Zrotation
		JOINT mixamorig:RightLeg
		{
			OFFSET 0.866669 -34.786114 -4.515933
			CHANNELS 3 Xrotation Yrotation Zrotation
			JOINT mixamorig:RightFoot
			{
				OFFSET 0.169025 -34.590725 -6.070333
				CHANNELS 3 Xrotation Yrotation Zrotation
				JOINT mixamorig:RightToeBase
				{
					OFFSET 0.591086 -11.123657 8.856282
					CHANNELS 3 Xrotation Yrotation Zrotation
					JOINT mixamorig:RightToe_End
					{
						OFFSET 0.176448 0.322465 9.196724
						CHANNELS 3 Xrotation Yrotation Zrotation
						JOINT mixamorig:RightToe_End_end
						{
							OFFSET 0.000000 9.204068 0.000000
							CHANNELS 3 Xrotation Yrotation Zrotation
							End Site
							{
								OFFSET 0.000000 9.204068 0.000000
							}
						}
					}
				}
			}
		}
	}
}
MOTION
Frames: 4
Frame Time: 0.033333
1.794792 86.256783 0.030141 6.805831 6.170515 5.525790 5.503435 1.273558 -0.479199 10.792547 2.274550 -2.157588 10.793200 2.281455 -2.146110 -4.316248 -2.015646 -0.913918 -19.483509 -10.517147 -2.524030 -0.000000 -0.000000 0.000000 -0.000000 0.000000 -0.000000 -0.000000 -0.000000 0.000000 -0.000000 0.000000 -0.000000 -0.000000 -0.000000 0.000000 -0.000000 0.000000 -0.000000 0.576896 -1.010225 -4.618349 -24.165821 -24.496993 -51.502044 0.550271 -41.065840 1.641223 -6.001467 -5.551738 -16.879566 1.226427 -2.007258 -25.401023 -0.472609 -3.311988 -16.421383 0.433805 0.476007 -14.894098 0.000002 0.000003 -0.000000 0.000001 -0.000000 0.000001 17.418497 -7.126722 -11.268039 3.026911 15.189980 4.142701 7.886789 14.733066 -0.580147 0.000001 -0.000002 -0.000001 -0.000002 -0.000000 -0.000001 2.255708 0.799704 -18.504200 1.892484 -1.381556 -20.602883 1.287947 -1.283235 -16.086574 -0.000001 0.000000 -0.000000 -0.000001 0.000000 -0.000000 -4.742830 -10.942134 -25.616744 -2.044782 0.925522 -19.006070 -0.238650 2.168559 -8.923471 -0.000001 0.000001 -0.000000 -0.000002 0.000000 0.000001 -4.473513 -10.644433 -25.060731 -4.941509 -4.795138 -18.799148 -2.051322 3.748983 -15.805497 -0.000001 -0.000000 0.000001 -0.000001 -0.000000 0.000001 0.970311 3.913153 8.486927 -24.114241 21.003462 47.335390 0.263345 21.451642 -1.470950 -7.324950 -3.537062 23.120658 2.021013 2.919126 41.556606 -0.378208 3.367546 19.285099 0.527089 -0.445705 16.310509 -0.000000 -0.000001 0.000002 0.000001 -0.000000 -0.000001 3.393526 -7.276098 -1.006380 2.580598 -9.700215 -3.141051 6.176218 -10.128977 0.513108 0.000000 0.000002 -0.000000 0.000004 0.000000 -0.000000 3.729174 0.513904 34.555314 2.252827 1.548293 23.473127 1.470033 1.408946 17.634488 -0.000001 0.000002 0.000001 -0.000001 0.000002 -0.000001 -6.222884 9.839991 42.017732 -2.229096 -1.071535 21.856003 -0.318256 -2.135866 10.429162 0.000002 0.000002 0.000001 0.000001 0.000000 -0.000001 -9.116700 12.222272 42.030337 -4.786820 0.569489 21.319940 -2.174420 -3.964908 17.336070 -0.000002 0.000001 0.000001 -0.000000 -0.000001 0.000001 -43.314013 6.731350 1.699249 61.842814 -0.439174 0.274157 -2.897346 0.299220 -1.747492 -0.013840 -0.000004 -0.000000 0.000001 -0.000002 -0.000000 -0.000000 0.000000 -0.000000 -28.666359 -4.656628 -12.535138 33.382420 -7.490244 -1.633750 -11.505534 -1.436223 6.911837 -0.004678 0.000000 0.000002 0.000000 -0.000001 0.000000 -0.000000 -0.000001 -0.000000 
1.478430 86.541725 2.665241 5.581758 5.710915 6.159786 5.729703 1.788768 -0.911927 11.303799 3.415136 -2.942888 11.304229 3.425983 -2.927231 -4.626908 -2.290503 -1.088176 -19.573584 -12.339140 -1.830402 -0.000001 -0.000000 0.000000 -0.000000 -0.000000 0.000000 -0.000001 -0.000000 0.000000 -0.000000 -0.000000 0.000000 -0.000001 -0.000000 0.000000 -0.000000 -0.000000 0.000000 0.605155 -0.962250 -5.523824 -19.895598 -24.503141 -45.650604 0.623250 -44.800713 1.691423 -9.440052 -4.628277 -17.608733 1.261512 -2.046159 -26.189676 -0.472609 -3.311988 -16.421378 0.433804 0.476010 -14.894100 -0.000001 -0.000000 -0.000000 -0.000001 -0.000000 -0.000000 17.418499 -7.126716 -11.268042 3.026912 15.189982 4.142703 7.886787 14.733068 -0.580146 0.000002 0.000000 0.000002 0.000000 -0.000001 -0.000000 2.329306 0.746375 -19.291586 1.892484 -1.381552 -20.602881 1.287994 -1.283099 -16.086579 -0.000002 0.000001 0.000002 -0.000002 0.000001 0.000002 -4.831859 -10.898008 -26.419148 -2.044782 0.925522 -19.006075 -0.238647 2.168561 -8.923463 0.000002 0.000000 -0.000002 -0.000002 -0.000002 -0.000001 -4.554823 -10.596827 -25.861994 -4.941510 -4.795133 -18.799145 -2.051322 3.748984 -15.805497 -0.000002 0.000000 -0.000000 -0.000002 0.000000 -0.000000 0.970187 4.210358 8.144175 -22.701986 22.899546 45.895849 0.291955 23.714284 -1.481925 -9.266731 -1.895860 22.152660 1.974433 2.835609 40.198009 -0.378207 3.367542 19.285097 0.527093 -0.445702 16.310514 0.000001 0.000000 0.000002 -0.000000 0.000000 0.000002 3.393526 -7.276098 -1.006381 2.580599 -9.700215 -3.141051 6.176221 -10.128977 0.513107 0.000000 0.000000 -0.000000 -0.000001 0.000000 0.000000 3.625080 0.390657 33.201433 2.252823 1.548295 23.473122 1.470039 1.408950 17.634486 0.000002 -0.000001 0.000002 0.000002 0.000002 -0.000001 -6.101299 9.949908 40.642286 -2.229091 -1.071539 21.855994 -0.318254 -2.135865 10.429164 0.000002 0.000003 -0.000001 -0.000000 -0.000002 -0.000002 -8.937327 12.399791 40.650813 -4.786818 0.569487 21.319939 -2.174417 -3.964905 17.336070 -0.000001 -0.000000 0.000001 0.000001 -0.000000 0.000000 -44.351383 6.332956 1.090872 56.525816 1.183019 -0.901970 -3.684311 0.321976 -1.785595 -0.022708 -0.000002 -0.000000 -0.000001 0.000001 -0.000000 0.000000 0.000001 0.000000 -23.992523 -5.524283 -12.522946 30.700273 -6.766218 -1.912836 -12.510418 -1.603332 6.923304 -0.002212 -0.000001 0.000002 0.000000 0.000000 0.000000 0.000000 0.000000 -0.000000 
1.243946 86.505890 5.292078 4.978953 5.149752 6.393217 5.918716 2.209213 -1.163487 11.749394 4.320756 -3.483698 11.748653 4.335119 -3.466942 -5.018346 -2.504275 -1.198449 -19.989537 -13.787486 -1.141026 -0.000000 0.000000 0.000000 0.000001 0.000000 -0.000000 -0.000000 0.000000 0.000000 0.000001 0.000000 -0.000000 -0.000000 0.000000 0.000000 0.000001 0.000000 -0.000000 0.625466 -0.543060 -6.842679 -16.151495 -23.527613 -40.128714 0.683925 -47.576567 1.735558 -12.730544 -5.068072 -18.325439 1.351959 -2.151656 -28.281617 -0.472609 -3.311989 -16.421380 0.433799 0.476008 -14.894095 0.000001 -0.000000 -0.000000 0.000001 -0.000000 -0.000000 17.418490 -7.126717 -11.268039 3.026914 15.189979 4.142704 7.886789 14.733066 -0.580148 0.000001 0.000000 0.000002 0.000001 0.000001 0.000001 2.520921 0.600089 -21.379819 1.892481 -1.381556 -20.602883 1.288026 -1.282956 -16.086586 -0.000001 0.000003 -0.000000 -0.000001 0.000002 -0.000000 -5.064812 -10.775088 -28.546663 -2.044780 0.925522 -19.006063 -0.238647 2.168556 -8.923469 -0.000000 0.000002 -0.000000 -0.000000 -0.000002 -0.000001 -4.780539 -10.491286 -27.988659 -4.941509 -4.795134 -18.799146 -2.051323 3.748988 -15.805495 0.000003 0.000000 -0.000000 0.000003 0.000000 -0.000000 0.988744 4.887846 7.716002 -22.038299 25.237240 44.127311 0.305887 24.787158 -1.487671 -11.460829 -0.131841 21.281780 1.931199 2.762007 38.985579 -0.378208 3.367541 19.285095 0.527089 -0.445701 16.310512 0.000001 0.000000 0.000002 0.000000 -0.000001 0.000001 3.393520 -7.276099 -1.006382 2.580597 -9.700215 -3.141052 6.176215 -10.128976 0.513108 0.000001 -0.000000 -0.000001 -0.000001 -0.000000 0.000001 3.529742 0.282747 31.992992 2.252827 1.548290 23.473123 1.470038 1.408947 17.634491 0.000001 -0.000002 0.000003 -0.000001 -0.000001 -0.000001 -5.990513 10.045535 39.414184 -2.229097 -1.071534 21.855999 -0.318258 -2.135863 10.429160 0.000003 0.000000 -0.000002 0.000002 0.000000 -0.000002 -8.773488 12.554589 39.418391 -4.786823 0.569489 21.319940 -2.174416 -3.964903 17.336070 0.000002 0.000000 -0.000000 0.000002 -0.000002 -0.000000 -45.838277 5.551365 0.691683 50.883369 2.233005 -1.737313 -4.351079 0.316490 -1.679534 -0.001009 -0.000003 -0.000000 -0.000001 0.000001 -0.000000 0.000000 0.000001 0.000000 -20.381056 -6.242986 -12.354057 28.922112 -6.174124 -2.003598 -13.865492 -1.732468 6.999690 -0.020087 -0.000000 0.000002 0.000000 -0.000000 0.000000 0.000000 -0.000000 -0.000000 
1.093087 86.220596 7.940367 5.031480 4.308801 6.333443 6.014823 2.575728 -1.298091 12.014534 5.094783 -3.810781 12.012309 5.110913 -3.794990 -5.476806 -2.653996 -1.374081 -20.612717 -14.960339 -0.554438 -0.000001 0.000000 -0.000000 -0.000000 0.000000 -0.000000 -0.000001 0.000000 -0.000000 -0.000000 0.000000 -0.000000 -0.000001 0.000000 -0.000000 -0.000000 0.000000 -0.000000 0.642574 0.123907 -8.096276 -13.685028 -21.444260 -36.338423 0.709026 -48.645444 1.754367 -15.603627 -6.966629 -19.453378 1.474186 -2.307736 -31.265864 -0.472609 -3.311990 -16.421383 0.433799 0.476011 -14.894098 0.000001 -0.000000 0.000002 0.000000 -0.000000 0.000002 17.418494 -7.126719 -11.268037 3.026914 15.189980 4.142704 7.886787 14.733070 -0.580145 -0.000001 -0.000001 0.000001 0.000001 -0.000001 0.000001 2.784752 0.379531 -24.357800 1.892480 -1.381554 -20.602878 1.288067 -1.282820 -16.086584 -0.000001 0.000003 0.000001 -0.000001 0.000003 0.000002 -5.388587 -10.585237 -31.579209 -2.044780 0.925524 -19.006063 -0.238647 2.168558 -8.923469 0.000001 0.000001 -0.000002 0.000001 0.000000 -0.000000 -5.089605 -10.316613 -31.019427 -4.941510 -4.795139 -18.799150 -2.051321 3.748984 -15.805495 0.000003 -0.000001 -0.000002 0.000003 -0.000001 -0.000002 1.017775 5.805344 7.206043 -21.969128 27.755683 42.317045 0.305439 24.753622 -1.487472 -13.052232 1.309849 20.576421 1.864927 2.655645 37.205536 -0.378209 3.367544 19.285095 0.527087 -0.445700 16.310511 0.000001 0.000001 -0.000000 0.000001 0.000001 -0.000000 3.393521 -7.276101 -1.006381 2.580602 -9.700215 -3.141053 6.176219 -10.128978 0.513107 0.000001 0.000001 0.000000 -0.000001 0.000000 -0.000001 3.385703 0.128024 30.218475 2.252824 1.548292 23.473120 1.470032 1.408949 17.634495 -0.000001 -0.000001 0.000000 -0.000001 0.000001 -0.000001 -5.824093 10.181659 37.610112 -2.229099 -1.071539 21.856001 -0.318252 -2.135866 10.429162 -0.000001 0.000002 0.000000 -0.000001 0.000002 0.000000 -8.526669 12.775537 37.606834 -4.786820 0.569486 21.319944 -2.174417 -3.964905 17.336072 0.000000 -0.000002 0.000000 0.000000 -0.000002 0.000001 -47.614178 4.516507 0.724005 44.866171 3.318260 -2.266323 -4.774626 0.217030 -1.950796 0.007146 -0.000000 -0.000000 -0.000001 0.000001 -0.000000 0.000000 0.000000 0.000000 -17.794926 -6.796122 -12.083036 27.867105 -5.398409 -1.974799 -15.511353 -1.842301 7.074139 -0.008636 -0.000000 0.000002 -0.000000 0.000000 -0.000000 -0.000000 0.000000 -0.000000 
